<svg xmlns="http://www.w3.org/2000/svg" width="100" height="34" viewBox="0,0,100,34"><rect width="100%" height="100%" fill="#cc9966"/><path fill="#30302b" d="M16.97 20.71L16.92 20.66L16.95 20.69Q15.21 20.48 14.10 21.75L14.23 21.87L14.29 21.94Q13.10 23.13 12.93 24.83L12.82 24.72L12.86 24.76Q12.65 26.59 13.62 27.46L13.69 27.53L13.61 27.45Q14.74 28.48 16.61 28.37L16.60 28.37L16.59 28.35Q18.40 28.15 19.38 27.54L19.45 27.61L19.43 27.58Q20.49 26.64 20.49 25.24L20.31 25.07L20.32 25.08Q20.47 24.89 20.40 24.55L20.41 24.56L20.28 24.43Q20.33 22.92 19.35 21.71L19.34 21.70L19.51 21.87Q18.50 20.64 17.00 20.74ZM16.63 30.67L16.60 30.64L16.62 30.66Q12.68 30.63 11.43 29.95L11.40 29.92L11.38 29.91Q10.42 29.18 10.25 27.65L10.21 27.61L10.22 27.63Q10.30 27.13 10.33 26.48L10.24 26.38L10.31 26.46Q10.41 25.57 10.41 25.16L10.49 25.25L10.39 25.15Q10.80 22.60 10.94 21.99L10.93 21.97L11.05 22.09Q11.43 20.33 12.18 19.08L12.20 19.10L12.07 18.97Q14.40 15.01 19.70 9.33L19.74 9.38L19.78 9.42Q22.15 9.14 24.13 8.42L24.21 8.51L24.17 8.47Q17.99 15.07 15.13 18.84L15.12 18.83L15.18 18.89Q16.12 18.50 17.28 18.50L17.22 18.44L17.14 18.36Q20.15 18.42 21.51 20.15L21.46 20.10L21.52 20.16Q22.67 21.58 22.97 24.74L23.10 24.87L23.10 24.87Q23.04 25.38 23.04 25.93L23.11 26.00L23.12 26.01Q23.05 28.73 21.08 29.68L21.11 29.71L21.16 29.76Q19.94 30.17 16.47 30.51ZM18.65 32.79L18.56 32.70L18.54 32.68Q19.72 32.67 21.49 32.74L21.49 32.74L21.55 32.80Q23.06 32.92 24.46 32.27L24.30 32.12L24.34 32.16Q25.41 31.53 25.41 29.93L25.37 29.89L25.34 29.86Q25.30 29.38 25.15 28.50L25.13 28.47L25.19 28.54Q25.05 27.67 25.05 27.26L25.13 27.34L25.13 27.34Q24.17 22.95 22.75 21.25L22.86 21.36L22.90 21.41Q22.75 21.22 22.62 21.02L22.73 21.13L22.44 20.91L22.24 20.74L22.21 20.71Q21.99 20.36 21.45 19.51L21.37 19.43L21.44 19.50Q20.69 18.72 18.92 18.31L18.86 18.24L18.96 18.35Q20.04 16.91 22.69 13.61L22.70 13.62L26.38 8.81L26.31 8.74Q24.96 9.56 22.81 10.24L22.94 10.36L22.83 10.26Q23.71 9.43 25.31 7.66L25.30 7.66L25.30 7.66Q23.06 8.51 19.59 9.02L19.56 8.99L19.67 9.10Q14.61 14.41 11.96 18.82L11.93 18.79L11.85 18.72Q10.60 21.07 10.09 26.64L10.13 26.68L10.06 26.61Q9.87 27.00 9.93 27.85L10.02 27.93L10.03 27.94Q10.16 29.57 11.15 30.39L11.17 30.41L11.12 30.36Q11.35 30.39 11.32 30.42L11.43 30.53L11.48 30.59Q11.64 31.21 12.35 31.59L12.38 31.62L12.49 31.73Q13.71 32.27 15.45 32.44L15.57 32.56L15.53 32.53Q15.51 32.51 18.64 32.78ZM18.40 22.72L18.40 22.71L18.37 22.68Q18.93 22.64 19.78 23.08L19.79 23.09L19.77 23.07Q20.04 23.88 20.04 24.46L20.05 24.47L19.97 24.39Q20.26 26.17 19.41 27.06L19.37 27.02L19.43 27.08Q18.46 27.71 16.60 27.98L16.54 27.92L16.54 27.93Q15.31 27.99 14.83 27.75L14.79 27.71L14.82 27.74Q14.57 27.25 14.57 26.98L14.62 27.03L14.63 27.04Q14.39 24.07 17.00 22.92L16.96 22.88L16.98 22.90Q17.62 22.55 18.30 22.61Z"/><path fill="#545449" d="M37.46 21.89L37.51 21.94L37.45 21.88Q34.38 27.58 31.32 31.12L31.24 31.03L31.18 30.97Q29.55 31.38 27.37 32.16L27.48 32.27L27.36 32.14Q31.83 27.24 36.08 19.73L36.12 19.76L36.05 19.69Q31.91 13.45 26.58 7.74L26.62 7.79L26.64 7.81Q29.28 8.92 31.32 9.36L31.24 9.27L31.18 9.22Q35.36 13.91 37.54 17.45L37.57 17.48L37.50 17.41Q39.90 13.62 43.40 9.68L43.34 9.62L43.33 9.61Q44.81 9.38 47.66 8.70L47.50 8.54L47.69 8.73Q42.17 14.40 39.08 19.70L39.07 19.69L39.15 19.77Q43.59 27.34 47.50 31.42L47.61 31.53L47.63 31.55Q45.22 30.74 43.35 30.53L43.37 30.55L43.46 30.64Q41.01 28.02 37.50 21.93ZM43.31 30.86L43.39 30.95L43.38 30.94Q43.59 30.91 44.00 31.01L44.08 31.09L44.01 31.02Q44.68 31.65 46.03 33.08L46.11 33.16L46.16 33.20Q49.15 33.92 51.87 35.15L51.85 35.12L51.73 35.01Q45.51 29.26 40.95 21.44L40.81 21.30L40.84 21.32Q44.18 15.39 49.45 9.27L49.46 9.28L49.53 9.35Q48.30 9.98 46.36 10.46L46.25 10.35L46.31 10.41Q47.03 9.54 48.60 7.94L48.61 7.95L48.60 7.95Q46.39 8.66 43.09 9.17L43.19 9.27L43.24 9.31Q40.19 12.72 37.88 16.56L37.81 16.49L37.78 16.47Q37.02 15.09 35.97 13.77L35.92 13.72L33.86 11.08L33.54 11.10L33.61 11.17Q33.40 11.09 33.19 11.03L33.21 11.05L33.24 11.08Q32.58 10.28 31.26 8.89L31.31 8.94L31.19 8.82Q27.96 8.20 25.64 6.98L25.65 6.99L25.58 6.92Q31.62 13.43 35.70 19.72L35.73 19.75L35.72 19.74Q31.67 27.00 26.53 32.88L26.62 32.97L26.45 32.80Q27.63 32.22 29.53 31.71L29.53 31.70L28.52 33.14L28.52 33.14Q28.40 33.02 27.21 34.21L27.23 34.23L27.25 34.24Q29.97 33.33 32.79 32.89L32.76 32.85L32.84 32.94Q36.36 28.85 38.67 24.60L38.65 24.57L38.68 24.60Q40.92 28.34 43.33 30.89Z"/><path fill="#534f45" d="M69.83 31.39L69.87 31.43L69.82 31.38Q72.56 27.50 78.55 20.43L78.71 20.59L78.60 20.48Q73.28 20.63 69.92 19.41L70.06 19.55L69.89 19.39Q69.37 18.18 68.69 16.92L68.77 17.01L68.62 16.85Q72.45 18.37 76.42 18.41L76.36 18.35L76.37 18.35Q80.30 18.34 84.04 17.39L84.04 17.39L84.04 17.39Q83.67 17.97 83.44 18.45L83.35 18.36L83.53 18.54Q81.17 20.44 78.66 23.67L78.67 23.68L74.24 29.17L74.35 29.28Q76.25 29.01 78.26 29.08L78.38 29.20L78.36 29.17Q80.23 29.15 82.24 29.49L82.32 29.57L82.31 29.56Q82.34 30.00 82.99 31.80L83.11 31.92L83.12 31.94Q79.71 31.11 76.14 31.21L76.19 31.26L76.05 31.11Q72.65 31.35 69.38 32.41L69.43 32.45L69.33 32.35Q69.50 32.32 69.91 31.47ZM68.78 32.86L68.91 32.99L68.76 32.83Q69.61 32.70 71.04 32.33L70.90 32.19L70.93 32.21Q70.76 32.46 70.39 32.83L70.31 32.76L70.37 32.81Q70.22 33.38 69.68 34.40L69.59 34.31L69.62 34.34Q73.76 33.07 78.21 33.21L78.21 33.22L78.37 33.37Q82.79 33.51 86.87 35.18L86.74 35.05L86.83 35.14Q85.57 33.50 84.75 31.66L84.72 31.63L84.60 31.51Q83.93 31.25 82.98 31.05L83.08 31.14L83.02 31.09Q82.88 30.47 82.54 29.18L82.52 29.16L82.48 29.12Q81.20 28.93 78.00 28.82L77.90 28.72L77.93 28.75Q80.03 25.75 84.52 20.07L84.58 20.13L84.53 20.09Q84.81 19.48 85.42 18.29L85.49 18.37L83.36 18.95L83.34 18.93Q83.52 18.98 83.66 18.87L83.63 18.85L83.82 18.70L83.68 18.56Q84.09 17.61 84.60 16.76L84.58 16.74L84.75 16.91Q80.50 18.03 76.29 17.96L76.33 18.01L76.33 18.00Q72.07 17.96 68.06 16.33L68.03 16.30L68.05 16.32Q69.08 17.96 69.79 19.79L69.86 19.87L69.79 19.79Q70.53 20.06 71.48 20.30L71.56 20.38L71.42 20.23Q71.67 20.93 71.94 22.22L72.00 22.27L71.88 22.15Q73.26 22.34 76.22 22.48L76.27 22.53L76.38 22.64Q74.19 25.55 69.57 31.30L69.57 31.30L69.62 31.35Q69.35 31.83 68.84 32.92Z"/><path d="M17 23 C61 9,43 33,83 30" stroke="#436de9" fill="none"/><path fill="#322f3b" d="M64.21 15.56L64.02 15.37L64.05 15.40Q62.65 11.90 57.11 12.07L57.00 11.95L57.05 12.00Q53.06 12.06 51.29 13.35L51.35 13.41L51.33 13.39Q49.28 15.04 49.28 18.71L49.15 18.59L49.15 20.25L49.13 20.23Q49.23 28.22 57.29 28.22L57.33 28.26L57.31 28.24Q59.01 28.10 60.33 27.39L60.39 27.45L60.39 27.44Q62.14 26.64 62.00 24.98L61.94 24.91L61.95 24.93Q61.78 23.06 58.49 22.25L58.48 22.23L56.78 22.27L56.65 22.14Q55.83 22.17 54.98 22.21L54.96 22.19L55.01 22.23Q55.07 21.45 55.04 19.75L55.05 19.76L54.89 19.59Q61.78 19.65 65.51 19.35L65.51 19.35L65.50 19.34Q65.50 20.11 65.50 20.83L65.48 20.81L65.43 20.76Q65.45 21.49 65.49 22.21L65.54 22.26L65.60 22.32Q64.62 22.33 64.62 22.33L64.57 22.28L64.50 22.21Q63.21 22.14 63.55 22.14L63.63 22.22L63.70 22.30Q64.55 23.62 64.89 25.39L65.03 25.52L65.02 25.52Q64.97 26.01 64.97 26.42L65.15 26.60L65.00 26.44Q65.14 30.73 57.29 30.73L57.27 30.71L57.22 30.66Q50.82 30.62 48.51 28.76L48.54 28.79L48.58 28.82Q46.71 26.61 46.71 22.09L46.80 22.18L46.72 22.11Q46.82 21.25 46.68 18.84L46.62 18.77L46.58 18.73Q46.46 16.64 46.49 15.41L46.47 15.39L46.62 15.54Q46.59 12.86 47.81 11.43L47.92 11.54L47.95 11.57Q50.11 9.62 54.46 9.45L54.45 9.44L56.94 9.48L56.80 9.34Q59.71 9.39 62.77 9.77L62.64 9.64L62.72 9.72Q66.06 10.14 66.91 13.03L66.87 12.99L66.87 12.98Q66.00 13.85 64.13 15.48ZM65.25 17.31L65.57 17.53L65.46 17.43Q66.45 16.38 68.12 14.61L68.22 14.71L68.28 14.77Q67.88 13.79 66.99 12.26L67.05 12.31L67.06 12.32Q65.90 9.84 62.50 9.26L62.50 9.26L62.51 9.28Q60.74 9.30 56.90 9.03L56.94 9.07L54.39 9.03L54.55 9.20Q49.88 9.32 47.57 11.09L47.46 10.98L47.52 11.04Q46.36 12.57 46.26 15.32L46.16 15.22L46.21 15.27Q46.20 14.85 46.40 19.75L46.35 19.70L46.49 19.83Q46.44 20.98 46.51 23.42L46.47 23.38L46.59 23.50Q46.66 27.38 48.22 29.11L48.23 29.11L48.19 29.08Q48.65 29.95 49.43 30.73L49.40 30.69L49.38 30.68Q51.93 32.31 56.86 32.61L56.89 32.65L59.38 32.73L59.52 32.87Q60.92 32.93 62.72 32.83L62.68 32.80L62.72 32.83Q63.99 32.75 65.86 32.27L65.83 32.23L65.95 32.36Q67.60 31.83 67.57 29.76L67.65 29.84L67.61 29.80Q67.60 28.68 66.65 26.20L66.67 26.22L66.53 26.08Q66.39 25.39 65.91 24.67L65.83 24.59L65.88 24.64Q66.38 24.63 67.44 24.80L67.36 24.73L67.52 24.88Q67.17 21.58 67.20 20.97L67.21 20.98L67.11 20.88Q66.85 20.96 66.48 20.92L66.44 20.89L66.46 20.90Q66.20 20.95 65.86 21.02L65.87 21.02L65.82 20.98Q65.74 19.92 65.81 18.96L65.84 19.00L65.93 19.08Q60.26 19.47 54.66 19.37L54.75 19.46L54.66 19.37Q54.67 20.16 54.67 20.98L54.67 20.98L54.75 22.62L54.63 22.50Q55.12 22.65 55.49 22.61L55.44 22.56L55.37 22.49Q55.75 22.50 56.16 22.50L56.30 22.64L56.18 22.52Q56.23 22.98 56.26 23.42L56.24 23.40L56.15 23.31Q56.24 23.81 56.21 24.25L56.16 24.20L56.15 24.19Q57.21 24.30 58.13 24.26L57.99 24.13L57.99 24.13Q58.90 24.12 59.82 24.15L59.96 24.29L60.00 24.33Q60.77 24.39 61.55 24.73L61.57 24.75L61.60 24.81L61.57 24.78Q61.70 26.14 60.20 26.95L60.23 26.98L60.24 26.98Q58.87 27.93 57.34 27.93L57.17 27.76L57.26 27.85Q53.81 27.83 51.63 26.27L51.57 26.20L51.69 26.33Q50.89 24.57 51.02 22.29L50.91 22.18L50.89 22.16Q51.29 18.00 52.93 16.22L52.76 16.05L52.83 16.11Q54.53 14.38 58.71 14.11L58.75 14.15L58.59 13.99Q61.99 13.92 63.72 15.52L63.75 15.54L63.74 15.54Q63.66 15.48 63.76 15.65L63.81 15.71L63.91 15.70L63.85 15.65Q64.52 16.41 65.03 17.40L64.96 17.34L65.29 17.35Z"/></svg>